<svg width="928" height="200" viewBox="0 0 928 200" fill="none" xmlns="http://www.w3.org/2000/svg">
<path fill-rule="evenodd" clip-rule="evenodd" d="M100 19.6721C55.6361 19.6721 19.6721 55.6361 19.6721 100C19.6721 144.364 55.6361 180.328 100 180.328C144.364 180.328 180.328 144.364 180.328 100C180.328 55.6361 144.364 19.6721 100 19.6721ZM0 100C0 44.7715 44.7715 0 100 0C155.228 0 200 44.7715 200 100C200 155.228 155.228 200 100 200C44.7715 200 0 155.228 0 100Z" fill="#814BF6"/>
<path fill-rule="evenodd" clip-rule="evenodd" d="M100 64.7541C80.5342 64.7541 64.7541 80.5342 64.7541 100C64.7541 119.466 80.5342 135.246 100 135.246C119.466 135.246 135.246 119.466 135.246 100C135.246 80.5342 119.466 64.7541 100 64.7541ZM45.082 100C45.082 69.6696 69.6696 45.082 100 45.082C130.33 45.082 154.918 69.6696 154.918 100C154.918 130.33 130.33 154.918 100 154.918C69.6696 154.918 45.082 130.33 45.082 100Z" fill="#00BCFF"/>
<path d="M264.471 132.89C282.039 132.89 293.077 122.585 293.936 107.428H276.67C275.596 114.47 270.957 118.42 264.686 118.42C256.139 118.42 250.598 111.249 250.598 98.626C250.598 86.1742 256.182 79.0467 264.686 79.0467C271.387 79.0467 275.682 83.4692 276.67 90.0386H293.936C293.163 74.7959 281.609 64.7916 264.386 64.7916C244.37 64.7916 232 78.6603 232 98.8836C232 118.935 244.155 132.89 264.471 132.89Z" fill="white"/>
<path d="M335.46 132.89C355.475 132.89 367.931 119.193 367.931 98.8836C367.931 78.4456 355.475 64.7916 335.46 64.7916C315.444 64.7916 302.988 78.4456 302.988 98.8836C302.988 119.193 315.444 132.89 335.46 132.89ZM335.546 118.72C326.311 118.72 321.587 110.262 321.587 98.7548C321.587 87.2477 326.311 78.7461 335.546 78.7461C344.609 78.7461 349.333 87.2477 349.333 98.7548C349.333 110.262 344.609 118.72 335.546 118.72Z" fill="white"/>
<path d="M404.14 132.675C414.792 132.675 420.332 126.535 422.867 121.039H423.64V131.602H441.679V43.6666H423.425V76.7281H422.867C420.418 71.361 415.135 64.7916 404.097 64.7916C389.622 64.7916 377.381 76.0411 377.381 98.7118C377.381 120.781 389.107 132.675 404.14 132.675ZM409.938 118.119C400.961 118.119 396.065 110.133 396.065 98.626C396.065 87.2047 400.875 79.3473 409.938 79.3473C418.829 79.3473 423.812 86.8612 423.812 98.626C423.812 110.391 418.743 118.119 409.938 118.119Z" fill="white"/>
<path d="M486.789 132.89C503.111 132.89 514.107 124.946 516.684 112.709L499.761 111.593C497.914 116.617 493.189 119.236 487.09 119.236C477.941 119.236 472.143 113.182 472.143 103.349V103.306H517.07V98.2825C517.07 75.8694 503.498 64.7916 486.059 64.7916C466.645 64.7916 454.06 78.5744 454.06 98.9265C454.06 119.837 466.473 132.89 486.789 132.89ZM472.143 91.9707C472.529 84.4568 478.242 78.4456 486.36 78.4456C494.306 78.4456 499.804 84.1133 499.847 91.9707H472.143Z" fill="white"/>
<path d="M583.903 84.4568C582.271 72.3056 572.478 64.7916 555.813 64.7916C538.933 64.7916 527.808 72.6062 527.851 85.3155C527.808 95.191 534.036 101.589 546.922 104.165L558.347 106.441C564.103 107.6 566.723 109.704 566.808 113.01C566.723 116.917 562.47 119.708 556.071 119.708C549.542 119.708 545.204 116.917 544.087 111.55L526.09 112.495C527.808 125.118 538.546 132.89 556.028 132.89C573.122 132.89 585.364 124.173 585.407 111.164C585.364 101.632 579.136 95.9209 566.336 93.3018L554.395 90.8973C548.253 89.5663 545.977 87.4624 546.02 84.285C545.977 80.3348 550.444 77.7586 556.114 77.7586C562.47 77.7586 566.25 81.2365 567.152 85.4873L583.903 84.4568Z" fill="white"/>
<path d="M596.928 156.333H615.226V121.039H615.784C618.318 126.535 623.859 132.675 634.511 132.675C649.544 132.675 661.27 120.781 661.27 98.7118C661.27 76.0411 649.029 64.7916 634.554 64.7916C623.515 64.7916 618.232 71.361 615.784 76.7281H614.968V65.6504H596.928V156.333ZM614.839 98.626C614.839 86.8612 619.822 79.3473 628.713 79.3473C637.775 79.3473 642.586 87.2047 642.586 98.626C642.586 110.133 637.69 118.119 628.713 118.119C619.908 118.119 614.839 110.391 614.839 98.626Z" fill="white"/>
<path d="M691.766 93.4735C691.809 84.972 697.006 79.9913 704.479 79.9913C711.91 79.9913 716.291 84.7573 716.248 92.8724V131.602H734.546V89.6092C734.589 74.1519 725.483 64.7916 711.738 64.7916C701.731 64.7916 695.03 69.5147 692.023 77.2863H691.25V43.6666H673.468V131.602H691.766V93.4735Z" fill="white"/>
<path d="M779.011 132.89C795.333 132.89 806.329 124.946 808.906 112.709L791.983 111.593C790.136 116.617 785.411 119.236 779.312 119.236C770.163 119.236 764.365 113.182 764.365 103.349V103.306H809.292V98.2825C809.292 75.8694 795.72 64.7916 778.281 64.7916C758.867 64.7916 746.282 78.5744 746.282 98.9265C746.282 119.837 758.695 132.89 779.011 132.89ZM764.365 91.9707C764.751 84.4568 770.464 78.4456 778.582 78.4456C786.528 78.4456 792.026 84.1133 792.069 91.9707H764.365Z" fill="white"/>
<path d="M821.233 131.602H839.53V94.2893C839.53 86.1742 845.458 80.5924 853.533 80.5924C856.067 80.5924 859.546 81.0218 861.264 81.58V65.3498C859.632 64.9634 857.355 64.7058 855.508 64.7058C848.121 64.7058 842.064 68.9995 839.659 77.1575H838.972V65.6504H821.233V131.602Z" fill="white"/>
<path d="M897.719 132.89C914.041 132.89 925.036 124.946 927.613 112.709L910.691 111.593C908.844 116.617 904.119 119.236 898.02 119.236C888.871 119.236 883.073 113.182 883.073 103.349V103.306H928V98.2825C928 75.8694 914.427 64.7916 896.989 64.7916C877.575 64.7916 864.99 78.5744 864.99 98.9265C864.99 119.837 877.403 132.89 897.719 132.89ZM883.073 91.9707C883.459 84.4568 889.172 78.4456 897.29 78.4456C905.236 78.4456 910.733 84.1133 910.776 91.9707H883.073Z" fill="white"/>
</svg>
