<svg width="80" height="80" viewBox="0 0 80 80" fill="none" xmlns="http://www.w3.org/2000/svg">
<path fill-rule="evenodd" clip-rule="evenodd" d="M40 7.86885C22.2545 7.86885 7.86885 22.2545 7.86885 40C7.86885 57.7455 22.2545 72.1311 40 72.1311C57.7455 72.1311 72.1311 57.7455 72.1311 40C72.1311 22.2545 57.7455 7.86885 40 7.86885ZM0 40C0 17.9086 17.9086 0 40 0C62.0914 0 80 17.9086 80 40C80 62.0914 62.0914 80 40 80C17.9086 80 0 62.0914 0 40Z" fill="#814BF6"/>
<path fill-rule="evenodd" clip-rule="evenodd" d="M40 25.9016C32.2137 25.9016 25.9016 32.2137 25.9016 40C25.9016 47.7863 32.2137 54.0984 40 54.0984C47.7863 54.0984 54.0984 47.7863 54.0984 40C54.0984 32.2137 47.7863 25.9016 40 25.9016ZM18.0328 40C18.0328 27.8678 27.8678 18.0328 40 18.0328C52.1322 18.0328 61.9672 27.8678 61.9672 40C61.9672 52.1322 52.1322 61.9672 40 61.9672C27.8678 61.9672 18.0328 52.1322 18.0328 40Z" fill="#00BCFF"/>
</svg>
